<svg width="25" height="25" viewBox="0 0 25 25" fill="none" xmlns="http://www.w3.org/2000/svg">
<path d="M20.8334 7.9429L14.5834 2.46373C14.0105 1.95128 13.2688 1.66797 12.5001 1.66797C11.7314 1.66797 10.9897 1.95128 10.4168 2.46373L4.16677 7.9429C3.8359 8.23881 3.57187 8.60181 3.39226 9.00774C3.21264 9.41366 3.12157 9.85319 3.1251 10.2971V19.4012C3.1251 20.23 3.45434 21.0249 4.04039 21.6109C4.62644 22.197 5.4213 22.5262 6.2501 22.5262H18.7501C19.5789 22.5262 20.3738 22.197 20.9598 21.6109C21.5459 21.0249 21.8751 20.23 21.8751 19.4012V10.2866C21.8771 9.84453 21.7854 9.407 21.6058 9.00298C21.4262 8.59896 21.163 8.23764 20.8334 7.9429ZM14.5834 20.4429H10.4168V15.2346C10.4168 14.9583 10.5265 14.6933 10.7219 14.498C10.9172 14.3026 11.1822 14.1929 11.4584 14.1929H13.5418C13.818 14.1929 14.083 14.3026 14.2783 14.498C14.4737 14.6933 14.5834 14.9583 14.5834 15.2346V20.4429ZM19.7918 19.4012C19.7918 19.6775 19.682 19.9425 19.4867 20.1378C19.2913 20.3332 19.0264 20.4429 18.7501 20.4429H16.6668V15.2346C16.6668 14.4058 16.3375 13.6109 15.7515 13.0249C15.1654 12.4388 14.3706 12.1096 13.5418 12.1096H11.4584C10.6296 12.1096 9.83477 12.4388 9.24872 13.0249C8.66267 13.6109 8.33343 14.4058 8.33343 15.2346V20.4429H6.2501C5.97383 20.4429 5.70888 20.3332 5.51353 20.1378C5.31818 19.9425 5.20843 19.6775 5.20843 19.4012V10.2866C5.20862 10.1387 5.2403 9.99258 5.30137 9.85788C5.36243 9.72317 5.45149 9.60301 5.5626 9.5054L11.8126 4.03665C12.0027 3.86965 12.2471 3.77755 12.5001 3.77755C12.7531 3.77755 12.9975 3.86965 13.1876 4.03665L19.4376 9.5054C19.5487 9.60301 19.6378 9.72317 19.6988 9.85788C19.7599 9.99258 19.7916 10.1387 19.7918 10.2866V19.4012Z" fill="#333333"/>
</svg>
