<svg width="25" height="25" viewBox="0 0 25 25" fill="none" xmlns="http://www.w3.org/2000/svg">
<path d="M16.9167 11.9884L18.5521 10.353L14.6458 6.44676L13.0104 8.08218L8.69792 3.7801C7.88542 2.9676 6.5625 2.9676 5.75 3.7801L3.77083 5.75926C2.95833 6.57176 2.95833 7.89468 3.77083 8.70718L8.07292 13.0093L3.28125 17.8113C3.17708 17.9155 3.125 18.0405 3.125 18.1863V21.353C3.125 21.6447 3.35417 21.8738 3.64583 21.8738H6.8125C6.94792 21.8738 7.08333 21.8218 7.17708 21.7176L11.9896 16.9051L16.2917 21.2072C17.6667 22.5822 19.1667 21.2801 19.2396 21.2072L21.2188 19.228C22.0312 18.4155 22.0312 17.0926 21.2188 16.2801L16.9167 11.9884ZM9.5625 11.5301L5.25 7.22801L7.21875 5.24885L8.54167 6.57176L8.05208 7.08218C7.85731 7.27695 7.74789 7.54111 7.74789 7.81655C7.74789 8.092 7.85731 8.35616 8.05208 8.55093C8.24685 8.7457 8.51101 8.85512 8.78646 8.85512C9.0619 8.85512 9.32607 8.7457 9.52083 8.55093L10.0208 8.05093L11.5312 9.56135L9.5625 11.5301ZM17.7708 19.7488L13.4688 15.4468L15.4479 13.4676L16.9583 14.978L16.4583 15.478C16.3619 15.5745 16.2854 15.6889 16.2332 15.8149C16.181 15.941 16.1541 16.076 16.1541 16.2124C16.1541 16.3488 16.181 16.4838 16.2332 16.6098C16.2854 16.7358 16.3619 16.8503 16.4583 16.9468C16.5548 17.0432 16.6693 17.1197 16.7953 17.1719C16.9213 17.2241 17.0563 17.251 17.1927 17.251C17.3291 17.251 17.4641 17.2241 17.5901 17.1719C17.7162 17.1197 17.8306 17.0432 17.9271 16.9468L18.4271 16.4468L19.75 17.7697L17.7708 19.7488ZM21.5729 7.33218C21.6695 7.23581 21.7461 7.12134 21.7984 6.99533C21.8506 6.86931 21.8775 6.73423 21.8775 6.5978C21.8775 6.46138 21.8506 6.32629 21.7984 6.20028C21.7461 6.07426 21.6695 5.9598 21.5729 5.86343L19.1354 3.42593C18.6458 2.93634 17.9687 3.12384 17.6667 3.42593L15.7604 5.33218L19.6667 9.23843L21.5729 7.33218Z" fill="#333333"/>
</svg>
