<svg width="25" height="25" viewBox="0 0 25 25" fill="none" xmlns="http://www.w3.org/2000/svg">
<path d="M18.7474 5.20964V3.1263C18.7474 1.98047 17.8099 1.04297 16.6641 1.04297H12.4974C11.3516 1.04297 10.4141 1.98047 10.4141 3.1263V5.20964H7.28906C6.14323 5.20964 5.20573 6.14714 5.20573 7.29297V16.668C5.20573 17.8138 6.14323 18.7513 7.28906 18.7513H21.8724C23.0182 18.7513 23.9557 17.8138 23.9557 16.668V7.29297C23.9557 6.14714 23.0182 5.20964 21.8724 5.20964H18.7474ZM16.6641 5.20964H12.4974V3.1263H16.6641V5.20964ZM2.08073 9.3763C1.50781 9.3763 1.03906 9.84505 1.03906 10.418V20.8346C1.03906 21.9805 1.97656 22.918 3.1224 22.918H18.7474C19.3203 22.918 19.7891 22.4492 19.7891 21.8763C19.7891 21.3034 19.3203 20.8346 18.7474 20.8346H3.1224V10.418C3.1224 9.84505 2.65365 9.3763 2.08073 9.3763Z" fill="#333333"/>
</svg>
