<svg width="25" height="25" viewBox="0 0 25 25" fill="none" xmlns="http://www.w3.org/2000/svg">
<path d="M12.5026 22.9154C18.2557 22.9154 22.9193 18.2518 22.9193 12.4987C22.9193 6.74557 18.2557 2.08203 12.5026 2.08203C6.74948 2.08203 2.08594 6.74557 2.08594 12.4987C2.08594 14.1654 2.4776 15.7404 3.1724 17.1372C3.35781 17.5081 3.41927 17.932 3.31198 18.3331L2.69219 20.6518C2.6308 20.8813 2.63086 21.1229 2.69235 21.3523C2.75384 21.5818 2.8746 21.791 3.04252 21.959C3.21043 22.127 3.41958 22.2479 3.64899 22.3096C3.87839 22.3712 4.11997 22.3714 4.34948 22.3102L6.66823 21.6893C7.07071 21.5876 7.4965 21.6369 7.8651 21.8279C9.30568 22.5451 10.8933 22.9174 12.5026 22.9154Z" stroke="white" stroke-width="2"/>
<path d="M12.5026 16.6654V8.33203M8.33594 14.582V10.4154M16.6693 14.582V10.4154" stroke="white" stroke-width="2" stroke-linecap="round"/>
</svg>
