<svg width="30" height="30" viewBox="0 0 30 30" fill="none" xmlns="http://www.w3.org/2000/svg">
<path d="M22.5 6.25V3.75C22.5 2.375 21.375 1.25 20 1.25H15C13.625 1.25 12.5 2.375 12.5 3.75V6.25H8.75C7.375 6.25 6.25 7.375 6.25 8.75V20C6.25 21.375 7.375 22.5 8.75 22.5H26.25C27.625 22.5 28.75 21.375 28.75 20V8.75C28.75 7.375 27.625 6.25 26.25 6.25H22.5ZM20 6.25H15V3.75H20V6.25ZM2.5 11.25C1.8125 11.25 1.25 11.8125 1.25 12.5V25C1.25 26.375 2.375 27.5 3.75 27.5H22.5C23.1875 27.5 23.75 26.9375 23.75 26.25C23.75 25.5625 23.1875 25 22.5 25H3.75V12.5C3.75 11.8125 3.1875 11.25 2.5 11.25Z" fill="black"/>
</svg>
