<svg width="30" height="30" viewBox="0 0 30 30" fill="none" xmlns="http://www.w3.org/2000/svg">
<path d="M15 27.5C21.9037 27.5 27.5 21.9037 27.5 15C27.5 8.09625 21.9037 2.5 15 2.5C8.09625 2.5 2.5 8.09625 2.5 15C2.5 17 2.97 18.89 3.80375 20.5662C4.02625 21.0112 4.1 21.52 3.97125 22.0012L3.2275 24.7837C3.15384 25.0591 3.1539 25.349 3.22769 25.6243C3.30148 25.8997 3.4464 26.1508 3.64789 26.3524C3.84939 26.554 4.10037 26.6991 4.37566 26.773C4.65094 26.847 4.94084 26.8472 5.21625 26.7738L7.99875 26.0287C8.48173 25.9067 8.99267 25.9659 9.435 26.195C11.1637 27.0557 13.0689 27.5025 15 27.5Z" stroke="#D9D9D9" stroke-width="2"/>
<path d="M15 20V10M10 17.5V12.5M20 17.5V12.5" stroke="#D9D9D9" stroke-width="2" stroke-linecap="round"/>
</svg>
