<svg width="30" height="30" viewBox="0 0 30 30" fill="none" xmlns="http://www.w3.org/2000/svg">
<path d="M25.0001 9.52991L17.5001 2.95491C16.8126 2.33997 15.9225 2 15.0001 2C14.0777 2 13.1876 2.33997 12.5001 2.95491L5.00012 9.52991C4.60308 9.88501 4.28624 10.3206 4.07071 10.8077C3.85517 11.2948 3.74588 11.8223 3.75012 12.3549V23.2799C3.75012 24.2745 4.14521 25.2283 4.84847 25.9316C5.55173 26.6348 6.50556 27.0299 7.50012 27.0299H22.5001C23.4947 27.0299 24.4485 26.6348 25.1518 25.9316C25.855 25.2283 26.2501 24.2745 26.2501 23.2799V12.3424C26.2526 11.8119 26.1424 11.2868 25.927 10.802C25.7115 10.3172 25.3956 9.88361 25.0001 9.52991ZM17.5001 24.5299H12.5001V18.2799C12.5001 17.9484 12.6318 17.6305 12.8662 17.396C13.1007 17.1616 13.4186 17.0299 13.7501 17.0299H16.2501C16.5816 17.0299 16.8996 17.1616 17.134 17.396C17.3684 17.6305 17.5001 17.9484 17.5001 18.2799V24.5299ZM23.7501 23.2799C23.7501 23.6114 23.6184 23.9294 23.384 24.1638C23.1496 24.3982 22.8316 24.5299 22.5001 24.5299H20.0001V18.2799C20.0001 17.2854 19.605 16.3315 18.9018 15.6283C18.1985 14.925 17.2447 14.5299 16.2501 14.5299H13.7501C12.7556 14.5299 11.8017 14.925 11.0985 15.6283C10.3952 16.3315 10.0001 17.2854 10.0001 18.2799V24.5299H7.50012C7.1686 24.5299 6.85066 24.3982 6.61624 24.1638C6.38181 23.9294 6.25012 23.6114 6.25012 23.2799V12.3424C6.25034 12.1649 6.28836 11.9895 6.36164 11.8279C6.43492 11.6662 6.54178 11.5221 6.67512 11.4049L14.1751 4.84241C14.4032 4.64202 14.6965 4.5315 15.0001 4.5315C15.3038 4.5315 15.597 4.64202 15.8251 4.84241L23.3251 11.4049C23.4585 11.5221 23.5653 11.6662 23.6386 11.8279C23.7119 11.9895 23.7499 12.1649 23.7501 12.3424V23.2799Z" fill="black"/>
</svg>
