<svg width="32" height="41" viewBox="0 0 32 41" fill="none" xmlns="http://www.w3.org/2000/svg">
<path d="M4.75 30.375V15.375H5.125M4.75 30.375H5.0625M4.75 30.375H7.875M4.75 30.375H6.625M5.375 30.375V16H14.75V15.625M5.375 30.375H6.625M5.375 30.375H5.0625M7.875 30.375V19.125H17.875V19.75H8.5V30.375M7.875 30.375H6.625M7.875 30.375H8.5M7.875 30.375L8.125 19.375M8.5 30.375H6.625M11.625 30.9355V22.25H20.375V24.125V26H22.875V12.875L16.625 6.625L10.375 12.25L9.75 11.625L16.625 5.375L23.5 12.25V26V26.625H21H19.75V22.875H12.25V29.75M12.25 29.75V30.4375H20.125H27.875V29.125V15.375L27.25 14.75V22.25V29.75H26H19.125H12.25ZM1.62751 15.375L16.625 1.625L30.375 15.375L31 14.75L16.625 1L1 14.6875M6.625 29.75V29.8M6.5 29.5L6.625 29.8M5.0625 30.375L5.12396 15.625M5.125 15.375H14.75V15.625M5.125 15.375L5.12396 15.625M5.12396 15.625H14.75M8.125 19.1875V19.375M8.125 19.375H17.6875M6.625 29.8H5.8H7.6" stroke="#414141"/>
<path d="M4.57812 40.9988V34.6328H8.6626V35.5984H5.73169V37.5082H8.37634V38.4609H5.73169V40.9988H4.57812Z" fill="#414141"/>
<path d="M12.2839 34.6328V40.9988H11.1304V34.6328H12.2839Z" fill="#414141"/>
<path d="M15.7771 40.9988H14.5424L16.7897 34.6328H18.2081L20.4512 40.9988H19.2207L17.5203 35.9402H17.469L15.7771 40.9988ZM15.8198 38.5037H19.1737V39.4265H15.8198V38.5037Z" fill="#414141"/>
<path d="M27.9519 34.6328V40.9988H26.918L23.923 36.6622H23.8674V40.9988H22.7139V34.6328H23.7478L26.7428 38.9694H26.7983V34.6328H27.9519Z" fill="#414141"/>
</svg>
