<svg width="142" height="41" viewBox="0 0 142 41" fill="none" xmlns="http://www.w3.org/2000/svg">
<path d="M4.75 30.375V15.375H5.125M4.75 30.375H5.0625M4.75 30.375H7.875M4.75 30.375H6.625M5.375 30.375V16H14.75V15.625M5.375 30.375H6.625M5.375 30.375H5.0625M7.875 30.375V19.125H17.875V19.75H8.5V30.375M7.875 30.375H6.625M7.875 30.375H8.5M7.875 30.375L8.125 19.375M8.5 30.375H6.625M11.625 30.9355V22.25H20.375V24.125V26H22.875V12.875L16.625 6.625L10.375 12.25L9.75 11.625L16.625 5.375L23.5 12.25V26V26.625H21H19.75V22.875H12.25V29.75M12.25 29.75V30.4375H20.125H27.875V29.125V15.375L27.25 14.75V22.25V29.75H26H19.125H12.25ZM1.62751 15.375L16.625 1.625L30.375 15.375L31 14.75L16.625 1L1 14.6875M6.625 29.75V29.8M6.5 29.5L6.625 29.8M5.0625 30.375L5.12396 15.625M5.125 15.375H14.75V15.625M5.125 15.375L5.12396 15.625M5.12396 15.625H14.75M8.125 19.1875V19.375M8.125 19.375H17.6875M6.625 29.8H5.8H7.6" stroke="#414141"/>
<path d="M4.57812 40.9988V34.6328H8.6626V35.5984H5.73169V37.5082H8.37634V38.4609H5.73169V40.9988H4.57812Z" fill="#414141"/>
<path d="M12.2839 34.6328V40.9988H11.1304V34.6328H12.2839Z" fill="#414141"/>
<path d="M15.7771 40.9988H14.5424L16.7897 34.6328H18.2081L20.4512 40.9988H19.2207L17.5203 35.9402H17.469L15.7771 40.9988ZM15.8198 38.5037H19.1737V39.4265H15.8198V38.5037Z" fill="#414141"/>
<path d="M27.9519 34.6328V40.9988H26.918L23.923 36.6622H23.8674V40.9988H22.7139V34.6328H23.7478L26.7428 38.9694H26.7983V34.6328H27.9519Z" fill="#414141"/>
<path d="M36 6L36 36" stroke="#414141"/>
<path d="M42.9658 14.1211H43.8477C44.1895 14.1211 44.4922 14.1953 44.7559 14.3438C45.0195 14.4902 45.2266 14.6953 45.377 14.959C45.5293 15.2227 45.6055 15.5322 45.6055 15.8877C45.6055 16.2334 45.5293 16.5371 45.377 16.7988C45.2266 17.0586 45.0195 17.2607 44.7559 17.4053C44.4922 17.5498 44.1895 17.6221 43.8477 17.6221H42.9658C42.624 17.6221 42.3203 17.5508 42.0547 17.4082C41.791 17.2637 41.584 17.0615 41.4336 16.8018C41.2832 16.542 41.208 16.2383 41.208 15.8906C41.208 15.5332 41.2832 15.2227 41.4336 14.959C41.5859 14.6953 41.7939 14.4902 42.0576 14.3438C42.3232 14.1953 42.626 14.1211 42.9658 14.1211ZM42.9658 14.792C42.7607 14.792 42.582 14.835 42.4297 14.9209C42.2773 15.0049 42.1602 15.1279 42.0781 15.29C41.9961 15.4521 41.9541 15.6523 41.9521 15.8906C41.9541 16.1172 41.9961 16.3096 42.0781 16.4678C42.1621 16.626 42.2803 16.7461 42.4326 16.8281C42.585 16.9102 42.7627 16.9512 42.9658 16.9512H43.8535C44.0586 16.9512 44.2354 16.9102 44.3838 16.8281C44.5342 16.7441 44.6504 16.623 44.7324 16.4648C44.8145 16.3047 44.8555 16.1123 44.8555 15.8877C44.8555 15.6533 44.8145 15.4551 44.7324 15.293C44.6504 15.1289 44.5342 15.0049 44.3838 14.9209C44.2354 14.835 44.0586 14.792 43.8535 14.792H42.9658ZM43.7891 13.5586V18.1816H43.0273V13.5586H43.7891ZM46.127 13.6348H46.918V16.6084H46.9561L49.0098 13.6348H49.7188V18H48.9277V15.0264H48.8867L46.833 18H46.127V13.6348ZM50.3516 18V13.6348H51.1426V15.4834H53.1641V13.6348H53.9551V18H53.1641V16.1484H51.1426V18H50.3516ZM55.1504 18H54.3037L55.8447 13.6348H56.8174L58.3555 18H57.5117L56.3457 14.5312H56.3105L55.1504 18ZM55.1797 16.2891H57.4795V16.9219H55.1797V16.2891ZM58.707 18V13.6348H59.498V15.4834H61.5195V13.6348H62.3105V18H61.5195V16.1484H59.498V18H58.707ZM64.833 18.0586C64.4502 18.0586 64.1074 17.9697 63.8047 17.792C63.5039 17.6143 63.2666 17.3584 63.0928 17.0244C62.9209 16.6904 62.835 16.2891 62.835 15.8203C62.835 15.3496 62.9219 14.9473 63.0957 14.6133C63.2715 14.2773 63.5098 14.0205 63.8105 13.8428C64.1133 13.665 64.4541 13.5762 64.833 13.5762C65.0732 13.5762 65.2979 13.6104 65.5068 13.6787C65.7178 13.7471 65.9053 13.8477 66.0693 13.9805C66.2334 14.1113 66.3672 14.2725 66.4707 14.4639C66.5762 14.6533 66.6455 14.8691 66.6787 15.1113H65.8818C65.8604 14.9785 65.8184 14.8613 65.7559 14.7598C65.6953 14.6582 65.6191 14.5723 65.5273 14.502C65.4375 14.4297 65.335 14.376 65.2197 14.3408C65.1045 14.3037 64.9805 14.2852 64.8477 14.2852C64.6094 14.2852 64.3984 14.3447 64.2148 14.4639C64.0312 14.5811 63.8877 14.7549 63.7842 14.9854C63.6807 15.2139 63.6289 15.4922 63.6289 15.8203C63.6289 16.1523 63.6807 16.4326 63.7842 16.6611C63.8896 16.8877 64.0332 17.0596 64.2148 17.1768C64.3984 17.292 64.6084 17.3496 64.8447 17.3496C64.9756 17.3496 65.0977 17.333 65.2109 17.2998C65.3242 17.2646 65.4268 17.2129 65.5186 17.1445C65.6123 17.0742 65.6895 16.9902 65.75 16.8926C65.8125 16.793 65.8564 16.6787 65.8818 16.5498H66.6787C66.6494 16.7588 66.585 16.9551 66.4854 17.1387C66.3877 17.3203 66.2588 17.4805 66.0986 17.6191C65.9404 17.7559 65.7549 17.8633 65.542 17.9414C65.3291 18.0195 65.0928 18.0586 64.833 18.0586ZM69.084 18.0586C68.7031 18.0586 68.3604 17.9697 68.0557 17.792C67.7529 17.6143 67.5137 17.3584 67.3379 17.0244C67.1641 16.6904 67.0771 16.2891 67.0771 15.8203C67.0771 15.3496 67.1641 14.9473 67.3379 14.6133C67.5137 14.2773 67.7529 14.0205 68.0557 13.8428C68.3604 13.665 68.7031 13.5762 69.084 13.5762C69.4668 13.5762 69.8086 13.665 70.1094 13.8428C70.4102 14.0205 70.6484 14.2773 70.8242 14.6133C71 14.9473 71.0879 15.3496 71.0879 15.8203C71.0879 16.2891 71 16.6904 70.8242 17.0244C70.6484 17.3584 70.4102 17.6143 70.1094 17.792C69.8086 17.9697 69.4668 18.0586 69.084 18.0586ZM69.084 17.3496C69.3203 17.3496 69.5293 17.291 69.7109 17.1738C69.8926 17.0566 70.0352 16.8848 70.1387 16.6582C70.2422 16.4297 70.2939 16.1504 70.2939 15.8203C70.2939 15.4883 70.2422 15.208 70.1387 14.9795C70.0352 14.751 69.8926 14.5781 69.7109 14.4609C69.5293 14.3438 69.3203 14.2852 69.084 14.2852C68.8477 14.2852 68.6377 14.3438 68.4541 14.4609C68.2725 14.5781 68.1299 14.751 68.0264 14.9795C67.9229 15.208 67.8711 15.4883 67.8711 15.8203C67.8711 16.1504 67.9229 16.4297 68.0264 16.6582C68.1299 16.8848 68.2725 17.0566 68.4541 17.1738C68.6377 17.291 68.8477 17.3496 69.084 17.3496ZM71.6094 18V13.6348H73.2852C73.5996 13.6348 73.8613 13.6846 74.0703 13.7842C74.2793 13.8818 74.4355 14.0166 74.5391 14.1885C74.6426 14.3584 74.6943 14.5508 74.6943 14.7656C74.6943 14.9434 74.6602 15.0957 74.5918 15.2227C74.5254 15.3477 74.4346 15.4492 74.3193 15.5273C74.2041 15.6055 74.0752 15.6621 73.9326 15.6973V15.7412C74.0889 15.7471 74.2373 15.7939 74.3779 15.8818C74.5205 15.9678 74.6367 16.0889 74.7266 16.2451C74.8184 16.4014 74.8643 16.5898 74.8643 16.8105C74.8643 17.0371 74.8096 17.2402 74.7002 17.4199C74.5928 17.5977 74.4287 17.7393 74.208 17.8447C73.9893 17.9482 73.7129 18 73.3789 18H71.6094ZM72.4004 17.3408H73.25C73.5371 17.3408 73.7441 17.2852 73.8711 17.1738C74 17.0625 74.0645 16.9209 74.0645 16.749C74.0645 16.6182 74.0322 16.501 73.9678 16.3975C73.9033 16.2939 73.8115 16.2119 73.6924 16.1514C73.5752 16.0908 73.4365 16.0605 73.2764 16.0605H72.4004V17.3408ZM72.4004 15.4922H73.1855C73.3203 15.4922 73.4424 15.4668 73.5518 15.416C73.6611 15.3652 73.7471 15.2939 73.8096 15.2021C73.874 15.1084 73.9062 14.998 73.9062 14.8711C73.9062 14.7031 73.8467 14.5645 73.7275 14.4551C73.6084 14.3438 73.4336 14.2881 73.2031 14.2881H72.4004V15.4922ZM77.2285 18.0586C76.8477 18.0586 76.5049 17.9697 76.2002 17.792C75.8975 17.6143 75.6582 17.3584 75.4824 17.0244C75.3086 16.6904 75.2217 16.2891 75.2217 15.8203C75.2217 15.3496 75.3086 14.9473 75.4824 14.6133C75.6582 14.2773 75.8975 14.0205 76.2002 13.8428C76.5049 13.665 76.8477 13.5762 77.2285 13.5762C77.6113 13.5762 77.9531 13.665 78.2539 13.8428C78.5547 14.0205 78.793 14.2773 78.9688 14.6133C79.1445 14.9473 79.2324 15.3496 79.2324 15.8203C79.2324 16.2891 79.1445 16.6904 78.9688 17.0244C78.793 17.3584 78.5547 17.6143 78.2539 17.792C77.9531 17.9697 77.6113 18.0586 77.2285 18.0586ZM77.2285 17.3496C77.4648 17.3496 77.6738 17.291 77.8555 17.1738C78.0371 17.0566 78.1797 16.8848 78.2832 16.6582C78.3867 16.4297 78.4385 16.1504 78.4385 15.8203C78.4385 15.4883 78.3867 15.208 78.2832 14.9795C78.1797 14.751 78.0371 14.5781 77.8555 14.4609C77.6738 14.3438 77.4648 14.2852 77.2285 14.2852C76.9922 14.2852 76.7822 14.3438 76.5986 14.4609C76.417 14.5781 76.2744 14.751 76.1709 14.9795C76.0674 15.208 76.0156 15.4883 76.0156 15.8203C76.0156 16.1504 76.0674 16.4297 76.1709 16.6582C76.2744 16.8848 76.417 17.0566 76.5986 17.1738C76.7822 17.291 76.9922 17.3496 77.2285 17.3496ZM82.9678 15.8672V16.5H81.0049V15.8672H82.9678ZM84.8516 13.6348H85.6426V16.6084H85.6807L87.7344 13.6348H88.4434V18H87.6523V15.0264H87.6113L85.5576 18H84.8516V13.6348ZM89.0762 18V13.6348H89.8672V15.4834H91.8887V13.6348H92.6797V18H91.8887V16.1484H89.8672V18H89.0762ZM93.3125 18V13.6348H94.9883C95.3027 13.6348 95.5645 13.6846 95.7734 13.7842C95.9824 13.8818 96.1387 14.0166 96.2422 14.1885C96.3457 14.3584 96.3975 14.5508 96.3975 14.7656C96.3975 14.9434 96.3633 15.0957 96.2949 15.2227C96.2285 15.3477 96.1377 15.4492 96.0225 15.5273C95.9072 15.6055 95.7783 15.6621 95.6357 15.6973V15.7412C95.792 15.7471 95.9404 15.7939 96.0811 15.8818C96.2236 15.9678 96.3398 16.0889 96.4297 16.2451C96.5215 16.4014 96.5674 16.5898 96.5674 16.8105C96.5674 17.0371 96.5127 17.2402 96.4033 17.4199C96.2959 17.5977 96.1318 17.7393 95.9111 17.8447C95.6924 17.9482 95.416 18 95.082 18H93.3125ZM94.1035 17.3408H94.9531C95.2402 17.3408 95.4473 17.2852 95.5742 17.1738C95.7031 17.0625 95.7676 16.9209 95.7676 16.749C95.7676 16.6182 95.7354 16.501 95.6709 16.3975C95.6064 16.2939 95.5146 16.2119 95.3955 16.1514C95.2783 16.0908 95.1396 16.0605 94.9795 16.0605H94.1035V17.3408ZM94.1035 15.4922H94.8887C95.0234 15.4922 95.1455 15.4668 95.2549 15.416C95.3643 15.3652 95.4502 15.2939 95.5127 15.2021C95.5771 15.1084 95.6094 14.998 95.6094 14.8711C95.6094 14.7031 95.5498 14.5645 95.4307 14.4551C95.3115 14.3438 95.1367 14.2881 94.9062 14.2881H94.1035V15.4922ZM97.0332 18V13.6348H99.875V14.2969H97.8242V15.4688H99.7227V16.1221H97.8242V17.3379H99.8867V18H97.0332ZM102.345 18.0586C101.962 18.0586 101.619 17.9697 101.316 17.792C101.016 17.6143 100.778 17.3584 100.604 17.0244C100.433 16.6904 100.347 16.2891 100.347 15.8203C100.347 15.3496 100.434 14.9473 100.607 14.6133C100.783 14.2773 101.021 14.0205 101.322 13.8428C101.625 13.665 101.966 13.5762 102.345 13.5762C102.585 13.5762 102.81 13.6104 103.019 13.6787C103.229 13.7471 103.417 13.8477 103.581 13.9805C103.745 14.1113 103.879 14.2725 103.982 14.4639C104.088 14.6533 104.157 14.8691 104.19 15.1113H103.394C103.372 14.9785 103.33 14.8613 103.268 14.7598C103.207 14.6582 103.131 14.5723 103.039 14.502C102.949 14.4297 102.847 14.376 102.731 14.3408C102.616 14.3037 102.492 14.2852 102.359 14.2852C102.121 14.2852 101.91 14.3447 101.727 14.4639C101.543 14.5811 101.399 14.7549 101.296 14.9854C101.192 15.2139 101.141 15.4922 101.141 15.8203C101.141 16.1523 101.192 16.4326 101.296 16.6611C101.401 16.8877 101.545 17.0596 101.727 17.1768C101.91 17.292 102.12 17.3496 102.356 17.3496C102.487 17.3496 102.609 17.333 102.723 17.2998C102.836 17.2646 102.938 17.2129 103.03 17.1445C103.124 17.0742 103.201 16.9902 103.262 16.8926C103.324 16.793 103.368 16.6787 103.394 16.5498H104.19C104.161 16.7588 104.097 16.9551 103.997 17.1387C103.899 17.3203 103.771 17.4805 103.61 17.6191C103.452 17.7559 103.267 17.8633 103.054 17.9414C102.841 18.0195 102.604 18.0586 102.345 18.0586ZM104.507 14.2969V13.6348H107.987V14.2969H106.64V18H105.857V14.2969H104.507ZM108.43 13.6348H109.221V16.6084H109.259L111.312 13.6348H112.021V18H111.23V15.0264H111.189L109.136 18H108.43V13.6348ZM116.694 17.3379L116.639 19.0312H115.871V18H115.561V17.3379H116.694ZM112.654 18V13.6348H113.413V17.3438H115.373V13.6348H116.141V18H112.654ZM117.09 13.6348H117.881V16.6084H117.919L119.973 13.6348H120.682V18H119.891V15.0264H119.85L117.796 18H117.09V13.6348ZM123.213 18.0586C122.832 18.0586 122.489 17.9697 122.185 17.792C121.882 17.6143 121.643 17.3584 121.467 17.0244C121.293 16.6904 121.206 16.2891 121.206 15.8203C121.206 15.3496 121.293 14.9473 121.467 14.6133C121.643 14.2773 121.882 14.0205 122.185 13.8428C122.489 13.665 122.832 13.5762 123.213 13.5762C123.596 13.5762 123.938 13.665 124.238 13.8428C124.539 14.0205 124.777 14.2773 124.953 14.6133C125.129 14.9473 125.217 15.3496 125.217 15.8203C125.217 16.2891 125.129 16.6904 124.953 17.0244C124.777 17.3584 124.539 17.6143 124.238 17.792C123.938 17.9697 123.596 18.0586 123.213 18.0586ZM123.213 17.3496C123.449 17.3496 123.658 17.291 123.84 17.1738C124.021 17.0566 124.164 16.8848 124.268 16.6582C124.371 16.4297 124.423 16.1504 124.423 15.8203C124.423 15.4883 124.371 15.208 124.268 14.9795C124.164 14.751 124.021 14.5781 123.84 14.4609C123.658 14.3438 123.449 14.2852 123.213 14.2852C122.977 14.2852 122.767 14.3438 122.583 14.4609C122.401 14.5781 122.259 14.751 122.155 14.9795C122.052 15.208 122 15.4883 122 15.8203C122 16.1504 122.052 16.4297 122.155 16.6582C122.259 16.8848 122.401 17.0566 122.583 17.1738C122.767 17.291 122.977 17.3496 123.213 17.3496ZM125.738 18V13.6348H126.529V15.4834H128.551V13.6348H129.342V18H128.551V16.1484H126.529V18H125.738ZM129.975 18V13.6348H130.766V15.4834H132.787V13.6348H133.578V18H132.787V16.1484H130.766V18H129.975ZM136.109 18.0586C135.729 18.0586 135.386 17.9697 135.081 17.792C134.778 17.6143 134.539 17.3584 134.363 17.0244C134.189 16.6904 134.103 16.2891 134.103 15.8203C134.103 15.3496 134.189 14.9473 134.363 14.6133C134.539 14.2773 134.778 14.0205 135.081 13.8428C135.386 13.665 135.729 13.5762 136.109 13.5762C136.492 13.5762 136.834 13.665 137.135 13.8428C137.436 14.0205 137.674 14.2773 137.85 14.6133C138.025 14.9473 138.113 15.3496 138.113 15.8203C138.113 16.2891 138.025 16.6904 137.85 17.0244C137.674 17.3584 137.436 17.6143 137.135 17.792C136.834 17.9697 136.492 18.0586 136.109 18.0586ZM136.109 17.3496C136.346 17.3496 136.555 17.291 136.736 17.1738C136.918 17.0566 137.061 16.8848 137.164 16.6582C137.268 16.4297 137.319 16.1504 137.319 15.8203C137.319 15.4883 137.268 15.208 137.164 14.9795C137.061 14.751 136.918 14.5781 136.736 14.4609C136.555 14.3438 136.346 14.2852 136.109 14.2852C135.873 14.2852 135.663 14.3438 135.479 14.4609C135.298 14.5781 135.155 14.751 135.052 14.9795C134.948 15.208 134.896 15.4883 134.896 15.8203C134.896 16.1504 134.948 16.4297 135.052 16.6582C135.155 16.8848 135.298 17.0566 135.479 17.1738C135.663 17.291 135.873 17.3496 136.109 17.3496ZM138.635 18V13.6348H141.477V14.2969H139.426V15.4688H141.324V16.1221H139.426V17.3379H141.488V18H138.635ZM41.8789 28H41.0322L42.5732 23.6348H43.5459L45.084 28H44.2402L43.0742 24.5312H43.0391L41.8789 28ZM41.9082 26.2891H44.208V26.9219H41.9082V26.2891ZM48.2451 23.6348V24.2969H46.2266V28H45.4355V23.6348H48.2451ZM48.6875 28V23.6348H51.5293V24.2969H49.4785V25.4688H51.377V26.1221H49.4785V27.3379H51.541V28H48.6875ZM52.1094 28V23.6348H52.9004V25.4834H54.9219V23.6348H55.7129V28H54.9219V26.1484H52.9004V28H52.1094ZM56.1553 24.2969V23.6348H59.6357V24.2969H58.2881V28H57.5059V24.2969H56.1553ZM61.7803 28.0586C61.3975 28.0586 61.0547 27.9697 60.752 27.792C60.4512 27.6143 60.2139 27.3584 60.04 27.0244C59.8682 26.6904 59.7822 26.2891 59.7822 25.8203C59.7822 25.3496 59.8691 24.9473 60.043 24.6133C60.2188 24.2773 60.457 24.0205 60.7578 23.8428C61.0605 23.665 61.4014 23.5762 61.7803 23.5762C62.0205 23.5762 62.2451 23.6104 62.4541 23.6787C62.665 23.7471 62.8525 23.8477 63.0166 23.9805C63.1807 24.1113 63.3145 24.2725 63.418 24.4639C63.5234 24.6533 63.5928 24.8691 63.626 25.1113H62.8291C62.8076 24.9785 62.7656 24.8613 62.7031 24.7598C62.6426 24.6582 62.5664 24.5723 62.4746 24.502C62.3848 24.4297 62.2822 24.376 62.167 24.3408C62.0518 24.3037 61.9277 24.2852 61.7949 24.2852C61.5566 24.2852 61.3457 24.3447 61.1621 24.4639C60.9785 24.5811 60.835 24.7549 60.7314 24.9854C60.6279 25.2139 60.5762 25.4922 60.5762 25.8203C60.5762 26.1523 60.6279 26.4326 60.7314 26.6611C60.8369 26.8877 60.9805 27.0596 61.1621 27.1768C61.3457 27.292 61.5557 27.3496 61.792 27.3496C61.9229 27.3496 62.0449 27.333 62.1582 27.2998C62.2715 27.2646 62.374 27.2129 62.4658 27.1445C62.5596 27.0742 62.6367 26.9902 62.6973 26.8926C62.7598 26.793 62.8037 26.6787 62.8291 26.5498H63.626C63.5967 26.7588 63.5322 26.9551 63.4326 27.1387C63.335 27.3203 63.2061 27.4805 63.0459 27.6191C62.8877 27.7559 62.7021 27.8633 62.4893 27.9414C62.2764 28.0195 62.04 28.0586 61.7803 28.0586ZM63.9424 24.2969V23.6348H67.4229V24.2969H66.0752V28H65.293V24.2969H63.9424ZM67.8652 28V23.6348H69.541C69.8555 23.6348 70.1172 23.6846 70.3262 23.7842C70.5352 23.8818 70.6914 24.0166 70.7949 24.1885C70.8984 24.3584 70.9502 24.5508 70.9502 24.7656C70.9502 24.9434 70.916 25.0957 70.8477 25.2227C70.7812 25.3477 70.6904 25.4492 70.5752 25.5273C70.46 25.6055 70.3311 25.6621 70.1885 25.6973V25.7412C70.3447 25.7471 70.4932 25.7939 70.6338 25.8818C70.7764 25.9678 70.8926 26.0889 70.9824 26.2451C71.0742 26.4014 71.1201 26.5898 71.1201 26.8105C71.1201 27.0371 71.0654 27.2402 70.9561 27.4199C70.8486 27.5977 70.6846 27.7393 70.4639 27.8447C70.2451 27.9482 69.9688 28 69.6348 28H67.8652ZM68.6562 27.3408H69.5059C69.793 27.3408 70 27.2852 70.127 27.1738C70.2559 27.0625 70.3203 26.9209 70.3203 26.749C70.3203 26.6182 70.2881 26.501 70.2236 26.3975C70.1592 26.2939 70.0674 26.2119 69.9482 26.1514C69.8311 26.0908 69.6924 26.0605 69.5322 26.0605H68.6562V27.3408ZM68.6562 25.4922H69.4414C69.5762 25.4922 69.6982 25.4668 69.8076 25.416C69.917 25.3652 70.0029 25.2939 70.0654 25.2021C70.1299 25.1084 70.1621 24.998 70.1621 24.8711C70.1621 24.7031 70.1025 24.5645 69.9834 24.4551C69.8643 24.3438 69.6895 24.2881 69.459 24.2881H68.6562V25.4922ZM73.4844 28.0586C73.1035 28.0586 72.7607 27.9697 72.4561 27.792C72.1533 27.6143 71.9141 27.3584 71.7383 27.0244C71.5645 26.6904 71.4775 26.2891 71.4775 25.8203C71.4775 25.3496 71.5645 24.9473 71.7383 24.6133C71.9141 24.2773 72.1533 24.0205 72.4561 23.8428C72.7607 23.665 73.1035 23.5762 73.4844 23.5762C73.8672 23.5762 74.209 23.665 74.5098 23.8428C74.8105 24.0205 75.0488 24.2773 75.2246 24.6133C75.4004 24.9473 75.4883 25.3496 75.4883 25.8203C75.4883 26.2891 75.4004 26.6904 75.2246 27.0244C75.0488 27.3584 74.8105 27.6143 74.5098 27.792C74.209 27.9697 73.8672 28.0586 73.4844 28.0586ZM73.4844 27.3496C73.7207 27.3496 73.9297 27.291 74.1113 27.1738C74.293 27.0566 74.4355 26.8848 74.5391 26.6582C74.6426 26.4297 74.6943 26.1504 74.6943 25.8203C74.6943 25.4883 74.6426 25.208 74.5391 24.9795C74.4355 24.751 74.293 24.5781 74.1113 24.4609C73.9297 24.3438 73.7207 24.2852 73.4844 24.2852C73.248 24.2852 73.0381 24.3438 72.8545 24.4609C72.6729 24.5781 72.5303 24.751 72.4268 24.9795C72.3232 25.208 72.2715 25.4883 72.2715 25.8203C72.2715 26.1504 72.3232 26.4297 72.4268 26.6582C72.5303 26.8848 72.6729 27.0566 72.8545 27.1738C73.0381 27.291 73.248 27.3496 73.4844 27.3496ZM77.2754 28V23.6348H78.0664V25.4834H80.0879V23.6348H80.8789V28H80.0879V26.1484H78.0664V28H77.2754ZM81.5117 28V23.6348H84.3535V24.2969H82.3027V25.4688H84.2012V26.1221H82.3027V27.3379H84.3652V28H81.5117ZM84.6494 29.0518V27.3525H84.9424C85.042 27.2744 85.1338 27.165 85.2178 27.0244C85.3037 26.8818 85.376 26.6865 85.4346 26.4385C85.4951 26.1904 85.5371 25.8711 85.5605 25.4805L85.6748 23.6348H88.4609V27.3525H88.9502V29.0488H88.1914V28H85.4082V29.0518H84.6494ZM85.8652 27.3525H87.7021V24.2969H86.3838L86.3193 25.4805C86.3018 25.7773 86.2715 26.0439 86.2285 26.2803C86.1875 26.5146 86.1357 26.7207 86.0732 26.8984C86.0107 27.0742 85.9414 27.2256 85.8652 27.3525ZM89.3457 28V23.6348H91.0215C91.3359 23.6348 91.5977 23.6846 91.8066 23.7842C92.0156 23.8818 92.1719 24.0166 92.2754 24.1885C92.3789 24.3584 92.4307 24.5508 92.4307 24.7656C92.4307 24.9434 92.3965 25.0957 92.3281 25.2227C92.2617 25.3477 92.1709 25.4492 92.0557 25.5273C91.9404 25.6055 91.8115 25.6621 91.6689 25.6973V25.7412C91.8252 25.7471 91.9736 25.7939 92.1143 25.8818C92.2568 25.9678 92.373 26.0889 92.4629 26.2451C92.5547 26.4014 92.6006 26.5898 92.6006 26.8105C92.6006 27.0371 92.5459 27.2402 92.4365 27.4199C92.3291 27.5977 92.165 27.7393 91.9443 27.8447C91.7256 27.9482 91.4492 28 91.1152 28H89.3457ZM90.1367 27.3408H90.9863C91.2734 27.3408 91.4805 27.2852 91.6074 27.1738C91.7363 27.0625 91.8008 26.9209 91.8008 26.749C91.8008 26.6182 91.7686 26.501 91.7041 26.3975C91.6396 26.2939 91.5479 26.2119 91.4287 26.1514C91.3115 26.0908 91.1729 26.0605 91.0127 26.0605H90.1367V27.3408ZM90.1367 25.4922H90.9219C91.0566 25.4922 91.1787 25.4668 91.2881 25.416C91.3975 25.3652 91.4834 25.2939 91.5459 25.2021C91.6104 25.1084 91.6426 24.998 91.6426 24.8711C91.6426 24.7031 91.583 24.5645 91.4639 24.4551C91.3447 24.3438 91.1699 24.2881 90.9395 24.2881H90.1367V25.4922ZM93.0664 23.6348H93.8574V26.6084H93.8955L95.9492 23.6348H96.6582V28H95.8672V25.0264H95.8262L93.7725 28H93.0664V23.6348ZM100.37 23.6348V28H99.5967V23.6348H100.37ZM97.0332 28L98.416 25.709L97.1094 23.6348H98.0791L99.1104 25.4775H100.874L101.885 23.6348H102.852L101.568 25.7031L102.934 28H101.996L100.985 26.2129H98.9873L97.9561 28H97.0332ZM103.303 23.6348H104.094V26.6084H104.132L106.186 23.6348H106.895V28H106.104V25.0264H106.062L104.009 28H103.303V23.6348ZM107.527 23.6348H108.497L109.792 26.7959H109.842L111.14 23.6348H112.121V28H111.345V25H111.31L110.097 27.9854H109.528L108.33 24.9941H108.289V28H107.527V23.6348ZM114.652 28.0586C114.271 28.0586 113.929 27.9697 113.624 27.792C113.321 27.6143 113.082 27.3584 112.906 27.0244C112.732 26.6904 112.646 26.2891 112.646 25.8203C112.646 25.3496 112.732 24.9473 112.906 24.6133C113.082 24.2773 113.321 24.0205 113.624 23.8428C113.929 23.665 114.271 23.5762 114.652 23.5762C115.035 23.5762 115.377 23.665 115.678 23.8428C115.979 24.0205 116.217 24.2773 116.393 24.6133C116.568 24.9473 116.656 25.3496 116.656 25.8203C116.656 26.2891 116.568 26.6904 116.393 27.0244C116.217 27.3584 115.979 27.6143 115.678 27.792C115.377 27.9697 115.035 28.0586 114.652 28.0586ZM114.652 27.3496C114.889 27.3496 115.098 27.291 115.279 27.1738C115.461 27.0566 115.604 26.8848 115.707 26.6582C115.811 26.4297 115.862 26.1504 115.862 25.8203C115.862 25.4883 115.811 25.208 115.707 24.9795C115.604 24.751 115.461 24.5781 115.279 24.4609C115.098 24.3438 114.889 24.2852 114.652 24.2852C114.416 24.2852 114.206 24.3438 114.022 24.4609C113.841 24.5781 113.698 24.751 113.595 24.9795C113.491 25.208 113.439 25.4883 113.439 25.8203C113.439 26.1504 113.491 26.4297 113.595 26.6582C113.698 26.8848 113.841 27.0566 114.022 27.1738C114.206 27.291 114.416 27.3496 114.652 27.3496ZM119.067 28.0586C118.685 28.0586 118.342 27.9697 118.039 27.792C117.738 27.6143 117.501 27.3584 117.327 27.0244C117.155 26.6904 117.069 26.2891 117.069 25.8203C117.069 25.3496 117.156 24.9473 117.33 24.6133C117.506 24.2773 117.744 24.0205 118.045 23.8428C118.348 23.665 118.688 23.5762 119.067 23.5762C119.308 23.5762 119.532 23.6104 119.741 23.6787C119.952 23.7471 120.14 23.8477 120.304 23.9805C120.468 24.1113 120.602 24.2725 120.705 24.4639C120.811 24.6533 120.88 24.8691 120.913 25.1113H120.116C120.095 24.9785 120.053 24.8613 119.99 24.7598C119.93 24.6582 119.854 24.5723 119.762 24.502C119.672 24.4297 119.569 24.376 119.454 24.3408C119.339 24.3037 119.215 24.2852 119.082 24.2852C118.844 24.2852 118.633 24.3447 118.449 24.4639C118.266 24.5811 118.122 24.7549 118.019 24.9854C117.915 25.2139 117.863 25.4922 117.863 25.8203C117.863 26.1523 117.915 26.4326 118.019 26.6611C118.124 26.8877 118.268 27.0596 118.449 27.1768C118.633 27.292 118.843 27.3496 119.079 27.3496C119.21 27.3496 119.332 27.333 119.445 27.2998C119.559 27.2646 119.661 27.2129 119.753 27.1445C119.847 27.0742 119.924 26.9902 119.984 26.8926C120.047 26.793 120.091 26.6787 120.116 26.5498H120.913C120.884 26.7588 120.819 26.9551 120.72 27.1387C120.622 27.3203 120.493 27.4805 120.333 27.6191C120.175 27.7559 119.989 27.8633 119.776 27.9414C119.563 28.0195 119.327 28.0586 119.067 28.0586ZM121.229 24.2969V23.6348H124.71V24.2969H123.362V28H122.58V24.2969H121.229ZM125.152 23.6348H125.943V26.6084H125.981L128.035 23.6348H128.744V28H127.953V25.0264H127.912L125.858 28H125.152V23.6348Z" fill="#414141"/>
</svg>
